<svg width="59" height="109" viewBox="0 0 59 109" fill="none" xmlns="http://www.w3.org/2000/svg">
<path d="M53.2527 85.0928C53.2527 98.8999 42.0598 108.093 28.2527 108.093C14.4456 108.093 3.25269 98.8999 3.25269 85.0928C3.25269 71.2857 14.4456 55.0928 28.2527 55.0928C42.0598 55.0928 53.2527 71.2857 53.2527 85.0928Z" fill="#F096E6"/>
<ellipse cx="28.7527" cy="48.5928" rx="22.5" ry="18.5" fill="#F096E6"/>
<circle cx="29.2527" cy="51.0928" r="1" fill="black"/>
<path d="M21.3951 41.7021L21.6178 41.4678L23.4225 43.4951L24.5475 41.2451L25.0045 41.5732L23.8561 44.0576C23.8561 44.0654 23.8561 44.085 23.8561 44.1162C23.8561 44.1396 23.86 44.1553 23.8678 44.1631C23.9694 44.3037 24.1139 44.5029 24.3014 44.7607C24.4967 45.0107 24.6959 45.2725 24.899 45.5459C25.1022 45.8193 25.2858 46.085 25.4498 46.3428C25.6217 46.6006 25.7311 46.7998 25.778 46.9404L25.3326 47.1631L23.6451 44.8428C23.5514 44.9053 23.4498 45.0342 23.3405 45.2295C23.2389 45.417 23.1334 45.6279 23.024 45.8623C22.9225 46.0889 22.8287 46.3076 22.7428 46.5186C22.6569 46.7295 22.5865 46.8896 22.5319 46.999L22.0631 46.8701L22.9889 44.3037L21.3951 41.7021Z" fill="black"/>
<path d="M38.1608 41.7021L37.9381 41.4678L36.1334 43.4951L35.0084 41.2451L34.5514 41.5732L35.6998 44.0576C35.6998 44.0654 35.6998 44.085 35.6998 44.1162C35.6998 44.1396 35.6959 44.1553 35.6881 44.1631C35.5865 44.3037 35.442 44.5029 35.2545 44.7607C35.0592 45.0107 34.86 45.2725 34.6569 45.5459C34.4537 45.8193 34.2701 46.085 34.1061 46.3428C33.9342 46.6006 33.8248 46.7998 33.778 46.9404L34.2233 47.1631L35.9108 44.8428C36.0045 44.9053 36.1061 45.0342 36.2155 45.2295C36.317 45.417 36.4225 45.6279 36.5319 45.8623C36.6334 46.0889 36.7272 46.3076 36.8131 46.5186C36.899 46.7295 36.9694 46.8896 37.024 46.999L37.4928 46.8701L36.567 44.3037L38.1608 41.7021Z" fill="black"/>
<path d="M35.2527 59.0928V59.0928C32.535 54.5633 25.9704 54.5633 23.2527 59.0928V59.0928" stroke="black"/>
<rect x="16.2527" y="0.0927734" width="40" height="17" rx="8.5" transform="rotate(70 16.2527 0.0927734)" fill="#F096E6"/>
<rect width="40" height="17" rx="8.5" transform="matrix(-0.34202 0.939693 0.939693 0.34202 42.2527 0.0927734)" fill="#F096E6"/>
</svg>
