<svg width="58" height="108" viewBox="0 0 58 108" fill="none" xmlns="http://www.w3.org/2000/svg">
<path d="M52.9747 85C52.9747 98.8071 41.7818 108 27.9747 108C14.1676 108 2.97473 98.8071 2.97473 85C2.97473 71.1929 14.1676 55 27.9747 55C41.7818 55 52.9747 71.1929 52.9747 85Z" fill="#96BEF0"/>
<ellipse cx="28.4747" cy="48.5" rx="22.5" ry="18.5" fill="#96BEF0"/>
<circle cx="28.9747" cy="51" r="1" fill="black"/>
<ellipse cx="23.0739" cy="44.4859" rx="2.0992" ry="2.4859" fill="black"/>
<ellipse cx="35.0739" cy="44.4859" rx="2.0992" ry="2.4859" fill="black"/>
<path d="M22.9747 55V55C25.6924 59.5295 32.257 59.5295 34.9747 55V55" stroke="black"/>
<rect x="15.9747" width="40" height="17" rx="8.5" transform="rotate(70 15.9747 0)" fill="#96BEF0"/>
<rect width="40" height="17" rx="8.5" transform="matrix(-0.34202 0.939693 0.939693 0.34202 41.9747 0)" fill="#96BEF0"/>
</svg>
