<svg width="58" height="108" viewBox="0 0 58 108" fill="none" xmlns="http://www.w3.org/2000/svg">
<path d="M52.9747 85C52.9747 98.8071 41.7818 108 27.9747 108C14.1676 108 2.97473 98.8071 2.97473 85C2.97473 71.1929 14.1676 55 27.9747 55C41.7818 55 52.9747 71.1929 52.9747 85Z" fill="#96D2F0"/>
<ellipse cx="28.4747" cy="48.5" rx="22.5" ry="18.5" fill="#96D2F0"/>
<rect x="15.9747" width="40" height="17" rx="8.5" transform="rotate(70 15.9747 0)" fill="#96D2F0"/>
<rect width="40" height="17" rx="8.5" transform="matrix(-0.34202 0.939693 0.939693 0.34202 41.9747 0)" fill="#96D2F0"/>
<path d="M21.1172 41.6094L21.3398 41.375L23.1445 43.4023L24.2695 41.1523L24.7266 41.4805L23.5781 43.9648C23.5781 43.9727 23.5781 43.9922 23.5781 44.0234C23.5781 44.0469 23.582 44.0625 23.5898 44.0703C23.6914 44.2109 23.8359 44.4102 24.0234 44.668C24.2187 44.918 24.418 45.1797 24.6211 45.4531C24.8242 45.7266 25.0078 45.9922 25.1719 46.25C25.3437 46.5078 25.4531 46.707 25.5 46.8477L25.0547 47.0703L23.3672 44.75C23.2734 44.8125 23.1719 44.9414 23.0625 45.1367C22.9609 45.3242 22.8555 45.5352 22.7461 45.7695C22.6445 45.9961 22.5508 46.2148 22.4648 46.4258C22.3789 46.6367 22.3086 46.7969 22.2539 46.9062L21.7852 46.7773L22.7109 44.2109L21.1172 41.6094Z" fill="black"/>
<path d="M37.8828 41.6094L37.6602 41.375L35.8555 43.4023L34.7305 41.1523L34.2734 41.4805L35.4219 43.9648C35.4219 43.9727 35.4219 43.9922 35.4219 44.0234C35.4219 44.0469 35.418 44.0625 35.4102 44.0703C35.3086 44.2109 35.1641 44.4102 34.9766 44.668C34.7812 44.918 34.582 45.1797 34.3789 45.4531C34.1758 45.7266 33.9922 45.9922 33.8281 46.25C33.6562 46.5078 33.5469 46.707 33.5 46.8477L33.9453 47.0703L35.6328 44.75C35.7266 44.8125 35.8281 44.9414 35.9375 45.1367C36.0391 45.3242 36.1445 45.5352 36.2539 45.7695C36.3555 45.9961 36.4492 46.2148 36.5352 46.4258C36.6211 46.6367 36.6914 46.7969 36.7461 46.9062L37.2148 46.7773L36.2891 44.2109L37.8828 41.6094Z" fill="black"/>
<path d="M34.9747 59V59C32.257 54.4705 25.6924 54.4705 22.9747 59V59" stroke="black"/>
</svg>
