<svg width="146" height="191" viewBox="0 0 146 191" fill="none" xmlns="http://www.w3.org/2000/svg">
<path d="M85.7068 55.4051C86.2835 45.0237 86.5993 34.0348 89.1397 23.8733C90.3414 19.0664 92.6079 6.71685 98.4212 5.05588C114.811 0.372955 135 -1.21995 142.286 17.516C145.731 26.3742 143.187 34.4365 137.836 41.9278C135.587 45.0768 132.304 47.7137 129.572 50.4465C124.786 55.2326 121.296 61.0105 116.539 65.7674C113.882 68.4249 108.877 78.2912 105.16 78.2912" stroke="black" stroke-width="3" stroke-linecap="round"/>
<path d="M69.6865 49.6836C70.7054 40.5142 72.5163 29.7296 69.623 20.5675C66.0495 9.25153 54.7443 8.27728 44.4483 7.2809C32.9158 6.16485 23.6268 2.58202 13.6158 9.88736C5.45879 15.8398 0.462927 29.0918 2.42705 39.1306C6.74892 61.2202 43.3676 47.1536 43.3676 70.281" stroke="black" stroke-width="3" stroke-linecap="round"/>
<path d="M59.3878 85.157C59.0902 82.7764 51.603 89.1955 50.2334 89.9884C45.8357 92.5345 44.3836 99.6156 43.6218 104.101C42.7379 109.307 43.3318 114.844 45.9104 119.486C47.7145 122.733 64.0291 112.082 66.6986 109.823C73.3869 104.164 76.5523 97.7486 76.5523 89.162C76.5523 81.505 64.0967 84.0127 59.3878 84.0127" stroke="black" stroke-width="3" stroke-linecap="round"/>
<path d="M79.9853 89.7342C78.4096 97.6129 73.1195 102.943 73.1195 111.222C73.1195 115.201 75.8082 124.578 81.7018 119.995C88.1003 115.018 91.5506 106.615 92.6362 99.0157C92.865 97.4139 95.2235 93.0254 91.9369 92.0864C89.4256 91.3688 85.4621 91.8045 83.4182 93.1671" stroke="black" stroke-width="3" stroke-linecap="round"/>
<path d="M45.6562 116.053C46.0076 112.891 50.6159 105.754 54.2385 105.754C60.1952 105.754 66.3282 106.094 58.2436 110.586C53.2007 113.387 57.5501 107.407 56.845 107.407C55.3035 107.407 53.1217 110.538 51.9499 111.476C50.5243 112.616 46.4417 115.602 49.6613 111.094C50.4378 110.007 50.2335 116.791 50.2335 114.909" stroke="black" stroke-width="3" stroke-linecap="round"/>
<path d="M65.1094 109.187C65.1094 103.403 58.7072 98.9335 53.9206 103.72C51.7946 105.846 45.6562 115.525 45.6562 110.904C45.6562 104.939 49.7622 98.8885 56.5271 98.8885C59.6692 98.8885 61.9331 99.2071 64.6008 99.9693C67.3945 100.767 67.6993 103.616 69.6866 104.61" stroke="black" stroke-width="3" stroke-linecap="round"/>
<path d="M55.955 111.476C55.7407 113.404 54.2778 115.363 53.6664 117.197" stroke="black" stroke-width="3" stroke-linecap="round"/>
<path d="M52.9182 108.274C52.8574 108.122 52.6094 108.576 52.5939 108.598C52.2949 109.025 51.9252 109.395 51.63 109.823C51.5365 109.959 50.9079 111.246 50.9813 110.769C51.1232 109.847 51.7069 109.222 52.1975 108.472C52.3419 108.251 52.9311 108.036 52.72 107.877C52.49 107.705 51.6519 108.423 51.3957 108.508C51.1427 108.592 50.3237 106.056 50.3237 105.517C50.3237 104.715 51.1618 104.214 51.666 103.679C52.2021 103.111 52.7064 102.599 53.3956 102.211C53.8901 101.933 54.4566 101.692 54.9001 101.337C54.9919 101.264 53.8723 102.14 53.4857 102.355C52.5472 102.876 52.0754 103.98 51.2156 104.553C49.7595 105.524 49.2683 107.346 47.9365 108.382C47.4345 108.772 45.3216 110.277 46.8464 108.958C48.5957 107.445 50.6291 106.295 52.5218 104.977C53.55 104.26 54.4825 103.662 55.1793 102.616C55.4575 102.199 55.5093 101.16 55.837 100.887C55.9633 100.781 56.7556 101.312 56.981 101.382C57.5913 101.573 58.6348 101.599 59.2422 101.382C60.4092 100.965 61.1954 100.815 62.4853 100.815" stroke="black" stroke-width="3" stroke-linecap="round"/>
<path d="M53.4047 101.625C54.4885 100.421 55.5773 99.1285 56.7289 97.9769C57.3451 97.3606 57.7683 96.6635 58.5216 96.1842C59.3112 95.6817 60.8154 95.2369 61.7466 95.1482C63.1225 95.0171 64.5586 95.2318 65.8095 95.7878C66.1403 95.9348 67.6562 97.0003 67.6562 97.3373C67.6562 97.8196 66.7591 98.7612 66.5392 99.2561C66.3896 99.5927 65.7278 98.3058 65.6383 98.2291C64.9314 97.6231 63.7978 97.2956 62.8907 97.094C61.7183 96.8335 60.0435 96.967 58.8369 97.094C57.5739 97.227 56.1186 97.4476 54.9542 97.9769C54.0848 98.3721 52.5383 98.6355 52.0714 99.5173C51.8217 99.989 51.4411 100.328 51.1706 100.815C50.6637 101.727 51.035 100.638 51.2246 100.202C51.8386 98.7899 52.7757 98.2103 54.0533 97.5715C55.1348 97.0307 56.5594 96.5084 57.7829 96.4364C58.6847 96.3834 59.7277 96.004 60.7016 95.9499C61.3106 95.9161 60.51 95.3013 60.2152 95.3013C59.6357 95.3013 59.0917 95.4049 58.5936 95.4635C57.4604 95.5968 56.1758 96.2536 55.1884 96.7967C54.4634 97.1955 53.278 98.1492 52.9182 98.8687" stroke="black" stroke-width="3" stroke-linecap="round"/>
<path d="M47.8914 115.895C48.0066 116.025 47.9909 116.247 48.0895 116.345C48.3339 116.59 49.2516 116.01 49.4048 115.922C50.8977 115.065 52.0401 113.854 53.2424 112.652C53.7151 112.179 54.9398 111.222 54.2784 112.58C53.8975 113.362 53.7463 114.094 53.1614 114.679C52.2186 115.621 51.5108 117.352 50.0804 117.67C49.3606 117.83 48.6445 117.841 47.8914 117.841" stroke="black" stroke-width="3" stroke-linecap="round"/>
<path d="M59.8908 108.111C59.5919 108.284 58.3211 109.585 58.2692 108.598C58.2353 107.953 58.2692 107.298 58.2692 106.652C58.2692 105.981 58.6256 105.125 58.2872 104.526C57.9433 103.917 57.5212 103.06 56.9359 102.634C56.8326 102.559 56.4498 102.88 56.3234 102.923" stroke="black" stroke-width="3" stroke-linecap="round"/>
<path d="M54.7019 103.895C56.4229 103.513 58.3251 103.247 60.089 103.247C60.9494 103.247 61.315 103.22 61.9988 103.733" stroke="black" stroke-width="3" stroke-linecap="round"/>
<path d="M53.8911 112.814C55.256 113.334 56.1418 112.225 57.3054 111.688C58.2495 111.252 59.2056 110.823 60.1431 110.373C61.3932 109.773 63.6078 109.272 64.269 107.949" stroke="black" stroke-width="3" stroke-linecap="round"/>
<path d="M55.8369 114.436C57.101 114.309 58.7375 113.016 59.6565 112.273C60.4801 111.608 61.4047 111.138 62.1609 110.382" stroke="black" stroke-width="3" stroke-linecap="round"/>
<path d="M67.512 108.274C67.512 107.182 67.0292 106.18 66.5301 105.265C66.1932 104.647 65.8256 104.061 65.404 103.499C64.7435 102.618 63.5699 101.586 63.296 100.49" stroke="black" stroke-width="3" stroke-linecap="round"/>
<path d="M68.485 106.814C68.5612 106.052 68.6471 105.317 68.6471 104.544" stroke="black" stroke-width="3" stroke-linecap="round"/>
<path d="M47.2428 105.355C47.2428 104.885 47.7131 104.51 47.8554 104.058C48.0621 103.4 48.6633 102.637 49.1526 102.148C50.0272 101.273 50.6218 100.192 51.4948 99.3191C52.6677 98.1463 54.287 97.3068 55.7469 96.5625C56.4856 96.1859 57.1722 95.8983 57.945 95.6256C59.2408 95.1682 60.5966 95.3904 61.8367 94.977" stroke="black" stroke-width="3" stroke-linecap="round"/>
<path d="M72.3766 101.625C72.3766 99.4926 70.2947 97.6969 68.6471 96.5985" stroke="black" stroke-width="3" stroke-linecap="round"/>
<path d="M68.9714 97.4093C68.5621 97.3581 67.9787 96.4122 67.476 96.2382C66.3919 95.8629 65.3129 95.61 64.1969 95.4274C63.0859 95.2456 61.9491 94.977 60.8277 94.977C60.4331 94.977 59.0629 95.0111 58.9178 95.3013" stroke="black" stroke-width="3" stroke-linecap="round"/>
<path d="M79.9979 92.2204C80.0449 91.7977 80.9505 91.401 81.2952 91.2115C82.1476 90.7426 83.347 90.615 84.304 90.5989C85.0303 90.5867 85.7576 90.5989 86.4841 90.5989C86.9083 90.5989 87.1827 90.9232 87.6192 90.9232" stroke="black" stroke-width="3" stroke-linecap="round"/>
<path d="M76.2683 102.76C77.443 101.631 79.2128 101.159 80.6465 100.454C81.6621 99.9547 82.4011 99.6794 83.5562 99.6794C85.3152 99.6794 87.4455 99.8339 88.9163 100.815" stroke="black" stroke-width="3" stroke-linecap="round"/>
<path d="M89.2407 100.977C89.6374 100.977 89.9404 101.19 90.2136 101.463" stroke="black" stroke-width="3" stroke-linecap="round"/>
<path d="M86.1597 101.95C85.9972 103.249 85.2298 103.972 84.7003 105.031" stroke="black" stroke-width="3" stroke-linecap="round"/>
<path d="M84.2139 102.598C83.9708 101.626 79.9975 103.444 79.5475 103.733C78.1269 104.647 77.0218 105.765 76.1062 107.139" stroke="black" stroke-width="3" stroke-linecap="round"/>
<path d="M76.9169 103.895C76.5437 104.315 76.2683 105.131 76.2683 105.679" stroke="black" stroke-width="3" stroke-linecap="round"/>
<path d="M83.4032 104.22C83.2746 104.648 82.4345 105.341 82.1059 105.679C81.5237 106.278 80.8043 106.899 80.3132 107.562C79.1044 109.194 78.581 111.108 77.7278 112.814" stroke="black" stroke-width="3" stroke-linecap="round"/>
<path d="M80.9709 103.895C79.65 105.363 77.7278 107.859 77.7278 109.895" stroke="black" stroke-width="3" stroke-linecap="round"/>
<path d="M75.944 108.274C75.2402 110.307 75.269 112.572 76.3494 114.517C76.837 115.394 76.7526 116.672 77.4755 117.498C78.2688 118.405 78.2025 118.619 79.3493 117.877C81.0894 116.751 81.8001 114.329 83.322 112.976C83.9219 112.443 84.5096 111.707 85.1057 111.111C85.6104 110.607 85.9908 110.064 86.4841 109.571" stroke="black" stroke-width="3" stroke-linecap="round"/>
<path d="M85.0247 106.003C85.9909 106.003 86.6734 107.071 87.457 107.463" stroke="black" stroke-width="3" stroke-linecap="round"/>
<path d="M84.376 106.49C84.8908 107.252 85.4082 108.241 86.2228 108.742C86.3842 108.841 86.6795 108.909 86.7723 109.084C86.9186 109.361 86.9705 110.107 86.9705 110.418C86.9705 111.731 86.1263 112.215 85.43 113.066C84.5367 114.158 83.3245 115.342 82.7545 116.625C82.3526 117.529 81.1808 118.012 80.6465 118.814" stroke="black" stroke-width="3" stroke-linecap="round"/>
<path d="M82.9167 108.922C83.1213 109.025 82.0518 110.233 81.9438 110.4C81.2097 111.529 80.5046 112.688 79.8718 113.877C79.4855 114.603 78.956 115.291 78.7007 116.057" stroke="black" stroke-width="3" stroke-linecap="round"/>
<path d="M83.241 105.355C83.3062 106.203 83.6113 107.018 83.7274 107.859C83.81 108.458 83.847 109.082 84.2139 109.571" stroke="black" stroke-width="3" stroke-linecap="round"/>
<path d="M85.5111 105.517C85.8928 105.856 86.588 105.948 87.0426 106.238C87.4602 106.503 88.0253 106.774 88.4299 106.976" stroke="black" stroke-width="3" stroke-linecap="round"/>
<path d="M69.7822 105.193C70.1654 105.145 70.4792 104.401 70.6831 104.139C71.0669 103.645 71.23 103.102 71.5659 102.598" stroke="black" stroke-width="3" stroke-linecap="round"/>
<path d="M22.618 139.726C28.9832 142.818 38.7626 143.57 44.5637 138.662C46.8983 136.686 48.8186 134.431 50.9272 132.323" stroke="black" stroke-width="3" stroke-linecap="round"/>
<path d="M50.9271 132.323C47.7424 135.695 45.1041 142.882 48.3865 146.985C52.7232 152.406 56.4128 150.161 62.7347 148.897C67.4418 147.955 75.0753 147.807 78.8007 144.082" stroke="black" stroke-width="3" stroke-linecap="round"/>
<path d="M31.3285 144.082C31.1667 145.7 30.9441 149.044 30.2155 150.397C29.0632 152.537 27.8022 155.725 27.3846 158.091C26.4785 163.226 23.8281 173.165 28.2799 177.617C31.0569 180.394 35.9355 177.179 38.5147 176.117C40.4914 175.303 42.3412 175.282 43.7168 173.601C45.0807 171.934 46.7622 170.303 47.8543 168.447C50.1056 164.62 50.7167 160.45 52.2337 156.373C52.6635 155.218 53.1587 151.459 53.9758 151.05" stroke="black" stroke-width="3" stroke-linecap="round"/>
<path d="M36.3895 144.303C35.8354 146.519 34.7825 148.583 34.1562 150.81C34.0581 151.159 33.1925 154.269 33.3428 154.353C34.2498 154.857 36.1391 154.477 37.134 154.477C37.8947 154.477 38.6617 154.451 39.4225 154.477C41.3467 154.543 42.0273 155.117 42.8415 152.878C43.2967 151.626 43.5859 149.67 43.5859 148.328C43.5859 146.559 44.3304 144.828 44.3304 143.062" stroke="black" stroke-width="3" stroke-linecap="round"/>
<path d="M42.3451 154.477C42.5099 155.136 44.7177 155.112 45.3229 155.415C45.9384 155.722 46.87 156.214 47.5563 156.214C48.9605 156.214 49.1457 151.969 49.7896 151.003" stroke="black" stroke-width="3" stroke-linecap="round"/>
<path d="M44.3303 143.807C44.3303 142.686 44.8266 141.713 44.8266 140.581" stroke="black" stroke-width="3" stroke-linecap="round"/>
<path d="M28.2006 161.922C29.4382 161.401 31.102 161.65 32.4191 161.673C33.8727 161.7 34.913 162.822 36.1414 163.466C37.2932 164.069 37.8082 163.946 38.9951 163.286C39.6873 162.902 41.4113 162.416 42.2349 162.79C43.5543 163.39 44.9186 164.434 46.3156 164.899" stroke="black" stroke-width="3" stroke-linecap="round"/>
<path d="M35.6451 167.877C35.8565 167.877 35.137 168.227 34.9558 168.429C34.451 168.99 34.3697 169.627 34.0321 170.235C33.5261 171.145 32.9154 172.546 32.9154 173.585" stroke="black" stroke-width="3" stroke-linecap="round"/>
<path d="M28.6968 159.688C29.7464 157.033 30.6386 154.51 32.419 152.244" stroke="black" stroke-width="3" stroke-linecap="round"/>
<path d="M32.9154 151.499C32.9154 149.139 34.1562 147.134 34.1562 144.799" stroke="black" stroke-width="3" stroke-linecap="round"/>
<path d="M32.1709 157.703C36.0062 157.192 39.9775 157.455 43.834 157.455" stroke="black" stroke-width="3" stroke-linecap="round"/>
<path d="M31.1783 157.207C32.137 156.355 34.2099 156.579 35.2591 157.069C37.019 157.89 38.9759 157.955 40.8011 158.503C42.4523 158.998 44.2276 158.447 45.8193 158.447" stroke="black" stroke-width="3" stroke-linecap="round"/>
<path d="M48.0526 158.447C49.5374 157.661 50.7823 154.657 50.7823 152.988" stroke="black" stroke-width="3" stroke-linecap="round"/>
<path d="M42.097 161.425C44.4074 162.285 45.9571 161.425 48.1767 161.425C49.4557 161.425 47.6463 160.917 47.5564 160.805C47.2897 160.472 45.9874 160.681 45.5712 160.681" stroke="black" stroke-width="3" stroke-linecap="round"/>
<path d="M42.3451 161.425C42.4672 162.646 45.8967 163.062 46.867 163.659C48.885 164.9 48.658 161.346 49.0452 160.185" stroke="black" stroke-width="3" stroke-linecap="round"/>
<path d="M46.8119 165.644V165.892" stroke="black" stroke-width="3" stroke-linecap="round"/>
<path d="M40.8562 162.418C39.9435 162.418 35.0118 162.803 37.2581 160.557C37.985 159.83 38.4658 159.376 39.6155 159.44C40.1761 159.471 40.988 160.477 41.6007 160.681" stroke="black" stroke-width="3" stroke-linecap="round"/>
<path d="M34.9006 160.681C34.1319 160.681 33.7443 160.184 33.0395 160.184C32.0222 160.184 30.9216 159.438 29.9376 159.192" stroke="black" stroke-width="3" stroke-linecap="round"/>
<path d="M34.9006 159.688H47.06" stroke="black" stroke-width="3" stroke-linecap="round"/>
<path d="M51.2786 151.747C51.2786 152.525 51.1844 153.296 51.5268 153.981" stroke="black" stroke-width="3" stroke-linecap="round"/>
<path d="M15.0485 140.581C17.8637 141.263 21.3249 140.574 24.0922 139.836C25.1593 139.552 26.2374 138.303 26.7116 137.355" stroke="black" stroke-width="3" stroke-linecap="round"/>
<path d="M73.1158 141.077C77.5351 144.456 81.9366 148.251 87.7568 147.281" stroke="black" stroke-width="3" stroke-linecap="round"/>
<path d="M47.9348 47.0596C47.528 43.1943 44.2175 39.592 41.9016 36.7497C39.5828 33.9039 38.1035 30.3912 35.4102 27.9672C33.5474 26.2907 27.4794 20.3657 25.9404 25.7525C24.9692 29.1515 25.1827 35.7257 29.0333 37.4371C30.0263 37.8784 30.2085 38.9583 31.2862 39.3463C32.161 39.6612 33.0019 39.3745 33.8446 39.8427C38.0588 42.1839 45.8729 40.181 45.8729 47.0596" stroke="black" stroke-width="3" stroke-linecap="round"/>
<path d="M100.859 53.9329C107.143 47.6489 108.231 37.7289 113.536 30.9074C114.253 29.9866 114.536 26.7829 116.668 27.9672C117.949 28.6793 118.73 31.9234 118.73 33.3131C118.73 37.2071 116.762 43.0225 113.155 45.3413C109.907 47.4291 103.291 50.4435 101.546 53.9329" stroke="black" stroke-width="3" stroke-linecap="round"/>
<path d="M67.1799 54.6203C68.2873 53.5129 68.9778 52.5583 70.6166 52.5583" stroke="black" stroke-width="3" stroke-linecap="round"/>
<path d="M83.6759 58.0569C83.5538 55.859 82.4677 53.8632 81.6139 51.871" stroke="black" stroke-width="3" stroke-linecap="round"/>
<path d="M78.8645 45.685V54.6203" stroke="black" stroke-width="3" stroke-linecap="round"/>
<path d="M74.7406 51.1836C74.1806 51.2536 74.0532 51.8188 74.0532 51.1836" stroke="black" stroke-width="3" stroke-linecap="round"/>
<path d="M110.482 85.55C114.543 82.8422 118.217 80.2386 121.479 76.6147" stroke="black" stroke-width="3" stroke-linecap="round"/>
<path d="M116.668 86.2373C120.716 87.5868 124.085 84.4803 126.978 82.1133" stroke="black" stroke-width="3" stroke-linecap="round"/>
<path d="M42.4361 75.2401C40.1837 74.1731 37.8926 73.3644 35.5629 72.4908" stroke="black" stroke-width="3" stroke-linecap="round"/>
<path d="M37.6249 78.6767C34.9461 75.9235 32.4751 73.1884 30.7516 69.7415" stroke="black" stroke-width="3" stroke-linecap="round"/>
<path d="M60.5143 134.47C60.6241 134.594 60.6376 134.668 60.6864 134.815" stroke="black" stroke-width="3" stroke-linecap="round"/>
<path d="M38.5433 131.006C38.6532 131.13 38.6667 131.204 38.7155 131.351" stroke="black" stroke-width="3" stroke-linecap="round"/>
<path d="M39.5433 135.006C39.6532 135.13 39.6667 135.204 39.7155 135.351" stroke="black" stroke-width="3" stroke-linecap="round"/>
<path d="M33.5433 134.006C33.6532 134.13 33.6667 134.204 33.7155 134.351" stroke="black" stroke-width="3" stroke-linecap="round"/>
<path d="M62.5433 139.006C62.6532 139.13 62.6667 139.204 62.7155 139.351" stroke="black" stroke-width="3" stroke-linecap="round"/>
<path d="M56.5433 138.006C56.6532 138.13 56.6667 138.204 56.7155 138.351" stroke="black" stroke-width="3" stroke-linecap="round"/>
<path d="M106.935 111.731C112.019 111.731 113.967 109.919 118.296 107.754" stroke="black" stroke-width="3" stroke-linecap="round"/>
<path d="M104.094 122.523C106.393 122.034 108.64 121.417 110.911 120.819" stroke="black" stroke-width="3" stroke-linecap="round"/>
<path d="M19.4552 92.4169L17.183 85.0322" stroke="black" stroke-width="3" stroke-linecap="round"/>
<path d="M16.0469 89.0085V99.2334" stroke="black" stroke-width="3" stroke-linecap="round"/>
<path d="M30.248 83.3281V87.3044" stroke="black" stroke-width="3" stroke-linecap="round"/>
<path d="M25.7037 87.8724L25.1356 81.6239" stroke="black" stroke-width="3" stroke-linecap="round"/>
<path d="M114.319 99.2334C116.264 98.3829 117.826 96.5795 119.432 95.2571" stroke="black" stroke-width="3" stroke-linecap="round"/>
<path d="M18.9932 183.231C20.3742 184.487 21.8357 185.744 23.3059 186.887C24.8111 188.058 31.2746 190.827 31.7715 188.342" stroke="black" stroke-width="3" stroke-linecap="round"/>
<path d="M80.7008 89.8232C80.7008 88.6699 83.9257 88.3406 84.6933 88.3022C86.0792 88.2329 87.4879 88.3022 88.8759 88.3022C90.6418 88.3022 93.0723 90.2311 93.8189 91.7243" stroke="black" stroke-width="3" stroke-linecap="round"/>
<path d="M82.2218 94.7662C82.3364 93.8498 85.6057 93.4354 86.3093 93.4354C87.7485 93.4354 88.5289 93.1668 89.8265 93.8156" stroke="white" stroke-width="3" stroke-linecap="round"/>
<path d="M90.0166 93.8157C90.0166 91.8275 88.173 92.2947 86.6367 92.2947C85.7283 92.2947 82.8558 93.1179 82.4119 94.0058" stroke="white" stroke-width="3" stroke-linecap="round"/>
<path d="M90.3968 94.7662C91.0499 94.6846 89.1037 91.3441 87.9253 91.3441" stroke="white" stroke-width="3" stroke-linecap="round"/>
<path d="M90.2066 94.386C90.001 92.5356 88.6041 91.9145 86.9746 91.9145C86.2458 91.9145 85.5171 91.9145 84.7883 91.9145C84.3987 91.9145 82.7479 92.9459 83.7426 92.5271C84.4031 92.249 85.2337 92.0795 85.929 91.925C86.7679 91.7386 87.3998 91.154 88.2632 91.154C90.1506 91.154 90.4079 91.9479 90.9671 93.6255" stroke="white" stroke-width="3" stroke-linecap="round"/>
<path d="M87.355 91.154C86.2368 91.154 83.1724 91.6474 83.1724 93.2453" stroke="white" stroke-width="3" stroke-linecap="round"/>
<path d="M84.6709 87.2116C86.5997 86.9223 88.5339 84.784 89.5682 83.2326" stroke="black" stroke-width="3" stroke-linecap="round"/>
<path d="M92.0168 87.5177C93.9025 87.0826 94.6592 85.0913 95.3837 83.5387" stroke="black" stroke-width="3" stroke-linecap="round"/>
<path d="M95.0776 89.9664C97.7254 89.9664 98.692 88.928 100.281 86.9056" stroke="black" stroke-width="3" stroke-linecap="round"/>
<path d="M74.8764 83.5387C71.461 83.5387 68.7837 79.2074 68.4487 76.1927" stroke="black" stroke-width="3" stroke-linecap="round"/>
<path d="M66.3061 82.9265C64.5116 84.3621 61.1368 77.6297 60.4906 76.4988" stroke="black" stroke-width="3" stroke-linecap="round"/>
<path d="M59.5724 84.763C57.5671 84.2161 56.3218 80.0002 55.5934 78.3353" stroke="black" stroke-width="3" stroke-linecap="round"/>
</svg>
