<svg width="278" height="282" viewBox="0 0 278 282" fill="none" xmlns="http://www.w3.org/2000/svg">
<path d="M211.203 205.283C210.57 176.794 208.863 148.392 208.863 119.866" stroke="black" stroke-width="3" stroke-linecap="round"/>
<path d="M157.379 76.5718C168.896 92.6953 183.238 104.928 199.763 115.185C206.32 119.255 213.409 121.087 220.434 123.961C224.879 125.779 228.847 129.249 233.435 130.396" stroke="black" stroke-width="3" stroke-linecap="round"/>
<path d="M236.946 129.226C238.924 123.787 249.689 118.824 253.977 114.535C256.468 112.044 259.444 110.317 262.428 108.424C265.759 106.312 269.014 102.314 273.219 102.314" stroke="black" stroke-width="3" stroke-linecap="round"/>
<path d="M160.889 75.402C173.216 64.3727 194.377 67.2328 207.108 57.3305C212.497 53.1393 226.154 52.7639 232.265 52" stroke="black" stroke-width="3" stroke-linecap="round"/>
<path d="M232.265 52C234.296 54.7076 234.985 58.3489 236.491 61.3608C238.478 65.3345 241.371 68.4477 243.706 72.1517C246.272 76.2221 249.34 79.3725 252.287 83.1377C257.746 90.1128 266.731 97.7672 275.559 99.9741" stroke="black" stroke-width="3" stroke-linecap="round"/>
<path d="M213.544 209.963C220.984 202.937 231.756 199.787 239.936 193.582C246.739 188.421 255.149 185.651 262.688 181.881" stroke="black" stroke-width="3" stroke-linecap="round"/>
<path d="M263.858 114.015C263.858 129.973 265.66 147.034 262.688 162.639C261.524 168.751 256.435 177.567 259.178 183.051" stroke="black" stroke-width="3" stroke-linecap="round"/>
<path d="M130.467 211.133C125.228 203.93 128.126 187.368 128.126 178.891C128.126 174.308 126.956 169.929 126.956 165.5" stroke="black" stroke-width="3" stroke-linecap="round"/>
<path d="M126.956 165.5C127.278 162.924 148.928 164.33 151.528 164.33C156.362 164.33 161.927 163.537 166.74 162.9C171.199 162.309 176.101 158.074 176.101 164.33C176.101 179.151 176.101 193.972 176.101 208.794" stroke="black" stroke-width="3" stroke-linecap="round"/>
<path d="M104.531 125.131C104.531 141.097 102.191 156.153 102.191 171.935C102.191 185.889 99.8505 198.997 99.8505 212.889" stroke="black" stroke-width="3" stroke-linecap="round"/>
<path d="M157.185 79.4976C153.003 79.4976 149.087 84.2451 145.744 86.5182C142.703 88.5863 142.207 92.61 139.374 94.7089C132.872 99.5252 129.841 105.672 124.423 111.09C116.045 119.468 104.964 123.817 94 127.472" stroke="black" stroke-width="3" stroke-linecap="round"/>
<path d="M212.18 208.209C202.528 208.669 192.356 210.549 182.928 210.549C179.561 210.549 176.863 211.719 173.567 211.719" stroke="white" stroke-width="3" stroke-linecap="round"/>
<path d="M211.01 210.549C202.97 211.442 194.675 214.059 186.438 214.059C182.148 214.059 177.857 214.059 173.567 214.059" stroke="white" stroke-width="3" stroke-linecap="round"/>
<path d="M97.5103 211.719C135.531 211.719 174.784 210.549 212.18 210.549" stroke="black" stroke-width="3" stroke-linecap="round"/>
<path d="M148.833 239C143.138 244.695 144.539 254.392 148.183 261.232C156.575 276.986 184.269 285.192 199.147 275.273" stroke="black" stroke-width="3" stroke-linecap="round"/>
<path d="M174.575 242.51C176.018 251.891 187.222 265.485 196.807 267.082" stroke="black" stroke-width="3" stroke-linecap="round"/>
<path d="M33.5927 23.0617C21.4295 23.0617 22.196 39.7509 28.6523 46.7237C33.7559 52.2356 62.5755 58.5009 65.1204 47.0487C66.4263 41.1723 62.0152 26.708 55.8246 24.2318C50.2565 22.0045 38.1146 20.4371 32.4226 24.2318" stroke="black" stroke-width="3" stroke-linecap="round"/>
<path d="M51.1443 10.1907C53.2466 7.51502 55.1173 4.8163 56.9948 2" stroke="black" stroke-width="3" stroke-linecap="round"/>
<path d="M37.103 66.3555V68.6957" stroke="black" stroke-width="3" stroke-linecap="round"/>
<path d="M73.3762 32.4226C78.5599 31.3859 83.5696 29.3479 88.5875 27.7422" stroke="black" stroke-width="3" stroke-linecap="round"/>
<path d="M18.3815 18.3816L13.701 10.1909" stroke="black" stroke-width="3" stroke-linecap="round"/>
<path d="M19.5515 45.2939C13.7058 46.116 7.85349 46.8706 2 47.6341" stroke="black" stroke-width="3" stroke-linecap="round"/>
<path d="M68.6958 59.335C72.5671 61.4562 76.4117 63.3741 80.3968 65.1855" stroke="black" stroke-width="3" stroke-linecap="round"/>
</svg>
