<svg width="186" height="166" viewBox="0 0 186 166" fill="none" xmlns="http://www.w3.org/2000/svg">
<g id="farm">
<path id="Vector 124" d="M119.203 155.283C118.57 126.794 116.863 98.3918 116.863 69.8657" stroke="black" stroke-width="3" stroke-linecap="round"/>
<path id="Vector 130" d="M65.3789 26.5718C76.8957 42.6953 91.238 54.9285 107.763 65.1851C114.32 69.2551 121.409 71.0868 128.434 73.9609C132.879 75.7793 136.847 79.2493 141.435 80.3964" stroke="black" stroke-width="3" stroke-linecap="round"/>
<path id="Vector 131" d="M144.946 79.2263C146.924 73.7871 157.689 68.8237 161.977 64.535C164.468 62.0441 167.444 60.317 170.428 58.4245C173.759 56.3119 177.014 52.314 181.219 52.314" stroke="black" stroke-width="3" stroke-linecap="round"/>
<path id="Vector 132" d="M68.8892 25.402C81.2161 14.3727 102.377 17.2328 115.108 7.33046C120.497 3.13934 134.154 2.76387 140.265 2" stroke="black" stroke-width="3" stroke-linecap="round"/>
<path id="Vector 133" d="M140.265 2C142.296 4.70758 142.985 8.34895 144.491 11.3608C146.478 15.3345 149.371 18.4477 151.706 22.1517C154.272 26.2221 157.34 29.3725 160.287 33.1377C165.746 40.1128 174.731 47.7672 183.559 49.9741" stroke="black" stroke-width="3" stroke-linecap="round"/>
<path id="Vector 134" d="M121.544 159.963C128.984 152.937 139.756 149.787 147.936 143.582C154.739 138.421 163.149 135.651 170.688 131.881" stroke="black" stroke-width="3" stroke-linecap="round"/>
<path id="Vector 135" d="M171.858 64.0151C171.858 79.9735 173.66 97.0344 170.688 112.639C169.524 118.751 164.435 127.567 167.178 133.051" stroke="black" stroke-width="3" stroke-linecap="round"/>
<path id="Vector 137" d="M38.4666 161.133C33.2277 153.93 36.1264 137.368 36.1264 128.891C36.1264 124.308 34.9563 119.929 34.9563 115.5" stroke="black" stroke-width="3" stroke-linecap="round"/>
<path id="Vector 138" d="M34.9563 115.5C35.2783 112.924 56.9283 114.33 59.5284 114.33C64.3616 114.33 69.9272 113.537 74.7397 112.9C79.1986 112.309 84.1005 108.074 84.1005 114.33C84.1005 129.151 84.1005 143.972 84.1005 158.794" stroke="black" stroke-width="3" stroke-linecap="round"/>
<path id="Vector 140" d="M12.5309 75.1313C12.5309 91.0965 10.1907 106.153 10.1907 121.935C10.1907 135.889 7.85046 148.997 7.85046 162.889" stroke="black" stroke-width="3" stroke-linecap="round"/>
<path id="Vector 141" d="M65.1855 29.4976C61.0028 29.4976 57.0872 34.2451 53.7445 36.5182C50.703 38.5863 50.2074 42.61 47.3739 44.7089C40.8719 49.5252 37.8406 55.6723 32.4226 61.0903C24.0449 69.468 12.9644 73.8169 2 77.4717" stroke="black" stroke-width="3" stroke-linecap="round"/>
<path id="Vector 142" d="M120.18 158.209C110.528 158.669 100.356 160.549 90.9277 160.549C87.5612 160.549 84.8631 161.719 81.5669 161.719" stroke="white" stroke-width="3" stroke-linecap="round"/>
<path id="Vector 143" d="M119.01 160.549C110.97 161.442 102.675 164.059 94.438 164.059C90.1476 164.059 85.8573 164.059 81.5669 164.059" stroke="white" stroke-width="3" stroke-linecap="round"/>
<path id="Vector 144" d="M5.51025 161.719C43.5307 161.719 82.7844 160.549 120.18 160.549" stroke="black" stroke-width="3" stroke-linecap="round"/>
</g>
</svg>
