<svg width="192" height="192" viewBox="0 0 192 192" fill="none" xmlns="http://www.w3.org/2000/svg">
<path d="M134.895 147.306C134.895 169.934 116.536 185 93.8875 185C71.2394 185 52.8796 169.934 52.8796 147.306C52.8796 124.677 71.2394 98.1389 93.8875 98.1389C116.536 98.1389 134.895 124.677 134.895 147.306Z" fill="#F096AA"/>
<ellipse cx="94.7077" cy="87.4857" rx="36.9072" ry="30.3195" fill="#F096AA"/>
<ellipse cx="95.5278" cy="91.583" rx="1.64032" ry="1.63889" fill="black"/>
<ellipse cx="85.6859" cy="80.9304" rx="3.28064" ry="4.09723" fill="black"/>
<ellipse cx="105.37" cy="80.9304" rx="3.28064" ry="4.09723" fill="black"/>
<path d="M85.686 98.1389V98.1389C90.1458 105.565 100.91 105.565 105.37 98.1389V98.1389" stroke="black"/>
<rect width="65.5623" height="27.8826" rx="10" transform="matrix(0.342283 0.939597 -0.939788 0.341757 74.2038 8)" fill="#F096AA"/>
<rect width="65.5623" height="27.8826" rx="10" transform="matrix(-0.342283 0.939597 0.939788 0.341757 116.852 8)" fill="#F096AA"/>
</svg>
