<svg width="91" height="71" viewBox="0 0 91 71" fill="none" xmlns="http://www.w3.org/2000/svg">
<g id="sun">
<path id="Vector 151" d="M33.5927 23.0617C21.4295 23.0617 22.196 39.7509 28.6523 46.7237C33.7559 52.2356 62.5755 58.5009 65.1204 47.0487C66.4263 41.1723 62.0152 26.708 55.8246 24.2318C50.2565 22.0045 38.1146 20.4371 32.4226 24.2318" stroke="black" stroke-width="3" stroke-linecap="round"/>
<path id="Vector 152" d="M51.1443 10.1907C53.2466 7.51502 55.1173 4.8163 56.9948 2" stroke="black" stroke-width="3" stroke-linecap="round"/>
<path id="Vector 153" d="M37.103 66.3555V68.6957" stroke="black" stroke-width="3" stroke-linecap="round"/>
<path id="Vector 154" d="M73.3762 32.4226C78.5599 31.3859 83.5696 29.3479 88.5875 27.7422" stroke="black" stroke-width="3" stroke-linecap="round"/>
<path id="Vector 155" d="M18.3815 18.3816L13.701 10.1909" stroke="black" stroke-width="3" stroke-linecap="round"/>
<path id="Vector 157" d="M19.5515 45.2939C13.7058 46.116 7.85349 46.8706 2 47.6341" stroke="black" stroke-width="3" stroke-linecap="round"/>
<path id="Vector 158" d="M68.6958 59.335C72.5671 61.4562 76.4117 63.3741 80.3968 65.1855" stroke="black" stroke-width="3" stroke-linecap="round"/>
</g>
</svg>
